Language.....: English -(GREETZ TO THE GREATZ:
[b][color=#FF0000] 
http://www.seedboxworld.com( for your cheap fast seedbox needs )


BadGirl2k9  	 	 	
UnDeaD 
algpz500 			
virusofsaten 	 		
WICCYWOLF	
FoxyB 			 		
Joker321[/color][/b]
 
http://www.imdb.com/title/tt1020558/


Centurion.2010.DvDRiP..X264.SDTeam

A splinter group of Roman soldiers fight for their lives behind enemy lines after their
                     legion is decimated in a devastating guerrilla attack

Format                           : Matroska
File size                        : 421 MiB
Duration                         : 1h 33mn
Overall bit rate                 : 629 Kbps
Video
ID                               : 1
Format                           : AVC
Format/Info                      : Advanced Video Codec
Format profile                   : High@L2.1
Format settings, CABAC           : Yes
Format settings, ReFrames        : 4 frames
Muxing mode                      : Container profile=Unknown@2.1
Codec ID                         : V_MPEG4/ISO/AVC
Duration                         : 1h 33mn
Bit rate                         : 490 Kbps
Nominal bit rate                 : 500 Kbps
Width                            : 576 pixels
Height                           : 240 pixels
Display aspect ratio             : 2.40:1
Frame rate                       : 25.000 fps
Original frame rate              : 43 690.668 fps
Resolution                       : 8 bits
Colorimetry                      : 4:2:0
Scan type                        : Progressive
Bits/(Pixel*Frame)               : 0.142
Stream size                      : 328 MiB (78%)

Audio
ID                               : 2
Format                           : MPEG Audio
Format version                   : Version 1
Format profile                   : Layer 3
Format_Settings_Mode             : Joint stereo
Format_Settings_ModeExtension    : MS Stereo
Codec ID                         : A_MPEG/L3
Codec ID/Hint                    : MP3
Duration                         : 1h 33mn
Bit rate mode                    : Variable
Bit rate                         : 127 Kbps
Nominal bit rate                 : 128 Kbps
Channel(s)                       : 2 channels
Sampling rate                    : 48.0 KHz
Stream size                      : 84.8 MiB (20%)
Writing library                  : LAME3.90.
Encoding settings                : -m j -V 4 -q 2 -lowpass 17.6 --abr 128




MMMMMMMMMMMMMMMMMM